<?xml version="1.0" encoding="UTF-8" standalone="no"?>
<!-- Created with Inkscape (http://www.inkscape.org/) -->
<!--
Copyright 2023-2024, Pluto VR, Inc.

Based in part on images from "Noto-Emoji" https://github.com/googlefonts/noto-emoji by Google.

Copyright 2013 Google Inc.

SPDX-License-Identifier: Apache-2.0
-->
<svg
   width="128.0px"
   height="128.0px"
   viewBox="0 0 128.0 128.0"
   version="1.1"
   id="SVGRoot"
   sodipodi:docname="logo-based-on-noto-emoji.svg"
   xml:space="preserve"
   inkscape:version="1.2.2 (b0a8486541, 2022-12-01)"
   xmlns:inkscape="http://www.inkscape.org/namespaces/inkscape"
   xmlns:sodipodi="http://sodipodi.sourceforge.net/DTD/sodipodi-0.dtd"
   xmlns="http://www.w3.org/2000/svg"
   xmlns:svg="http://www.w3.org/2000/svg"><sodipodi:namedview
     id="namedview1740"
     pagecolor="#ffffff"
     bordercolor="#666666"
     borderopacity="1.0"
     inkscape:showpageshadow="2"
     inkscape:pageopacity="0.0"
     inkscape:pagecheckerboard="0"
     inkscape:deskcolor="#d1d1d1"
     inkscape:document-units="px"
     showgrid="true"
     inkscape:zoom="7.2407734"
     inkscape:cx="9.1150484"
     inkscape:cy="71.401212"
     inkscape:window-width="2560"
     inkscape:window-height="1403"
     inkscape:window-x="0"
     inkscape:window-y="0"
     inkscape:window-maximized="1"
     inkscape:current-layer="layer2"><inkscape:grid
       type="xygrid"
       id="grid1863" /></sodipodi:namedview><defs
     id="defs1735"><radialGradient
       id="SVGID_1_"
       cx="65.418404"
       cy="73.027603"
       r="42.057098"
       gradientTransform="matrix(0.9999,0.0135,-0.0173,1.2815,4.4419803,-19.900474)"
       gradientUnits="userSpaceOnUse">
	<stop
   offset="0.59640002"
   style="stop-color:#b053ca;stop-opacity:1;"
   id="stop1914" />
	<stop
   offset="1"
   style="stop-color:#782b90;stop-opacity:1;"
   id="stop1916" />
</radialGradient></defs><g
     inkscape:label="Layer 1"
     inkscape:groupmode="layer"
     id="layer1"><g
       id="g2260"
       transform="translate(-2.6551874,-1.5653421)"><path
         style="fill:#4e1c5d;fill-opacity:1"
         d="m 62.341376,123.71953 c 0.2,0.99 1.31,1.87 4.39,2.07 3.08,0.2 5.15,-0.3 5.23,-1.95 0.09,-1.65 -1.14,-3.49 -1.34,-4.88 -0.2,-1.39 -0.99,-10.74 -1.19,-15.61 -0.2,-4.870001 -0.36,-14.160001 -0.36,-14.160001 l -4.07,0.43 c 0,0 0.06,9.65 -0.14,14.520001 -0.2,4.87 -1.01,12.01 -1.11,13.89 -0.09,1.71 -1.83,3.61 -1.41,5.69 z"
         id="path1912" /><path
         style="fill:url(#SVGID_1_)"
         d="m 67.051376,91.019529 c 0,0 -5.57,6.36 -9.55,8.75 -3.98,2.390001 -9.55,5.270001 -10.54,4.570001 -0.99,-0.7 1.39,-5.570001 1.39,-5.570001 0,0 -8.32,1.880001 -17.53,-0.79 -8.82,-2.55 -14.09,-6.37 -13.69,-7.47 0.4,-1.1 4.57,-1.69 8.65,-3.28 4.08,-1.59 9.55,-4.18 9.55,-4.18 0,0 -7.83,-2.84 -12.3,-5.62 -4.47,-2.78 -7.289996,-5.41 -7.389996,-6.31 -0.1,-0.89 6.259996,-2.49 6.259996,-2.49 0,0 -3.48,-2.39 -6.069996,-10.14 -2.59,-7.75 -3.27,-13.63 -2.78,-14.21 1.18,-1.37 11.729996,2.28 14.719996,3.85 2.88,1.51 7.55,4.5 7.55,4.5 0,0 -0.3,-5.97 0.7,-5.97 0.99,0 3.58,2.39 5.87,5.37 2.29,2.98 9.05,13.32 10.74,12.53 1.69,-0.8 0.09,-5.78 -2.28,-10.67 -1.49,-3.08 -3.59,-8.23 -4.78,-14.29 -1.18,-6 -0.5,-10.94 0.2,-11.53 0.7,-0.6 7.46,4.67 7.46,4.67 0,0 -0.54,-5.79 0.55,-10.76 1.09,-4.97 2.03,-6.46 2.62,-6.56 0.6,-0.1 2.99,3.4 2.99,3.4 0,0 0.92,-4.950003 2.91,-8.430003 1.99,-3.4799998 3.75,-5.0899998 4.64,-5.0899998 0.89,0 3.52,3.49 4.71,7.1699998 1.19,3.680003 1.88,6.730003 1.88,6.730003 0,0 1.51,-3.09 2.18,-3.2 0.57,-0.09 2.58,2.16 3.57,7.43 0.99,5.27 0.99,8.91 0.99,8.91 0,0 4.28,-4.47 5.07,-4.57 0.8,-0.1 2.79,5.07 1.3,12.13 -1.49,7.06 -5.37,13.88 -6.27,17.56 -0.89,3.68 -1.69,7.29 -0.2,7.69 1.49,0.4 3,-4.1 6.18,-9.08 3.18,-4.98 7.54,-10.21 8.14,-9.82 0.6,0.4 1.49,2.29 1.69,3.28 0.2,0.99 0.3,2.88 0.3,2.88 0,0 4.570004,-3.08 8.550004,-4.57 3.98,-1.49 12.93,-4.77 14.82,-3.18 1.89,1.59 -1.49,10.14 -3.48,14.52 -1.99,4.38 -6.36,10.93 -6.36,10.93 0,0 5.95,1.14 5.85,2.03 -0.1,0.89 -4.95,4.89 -9.33,7.18 -4.38,2.29 -9.960004,4.13 -9.960004,4.13 0,0 2.49,1.69 8.350004,3.58 5.87,1.89 10.74,2.49 11.14,3.48 0.4,0.99 -2.29,4.47 -11.24,6.86 -8.950004,2.39 -18.930004,1.06 -19.430004,1.55 -0.5,0.5 2.43,4.410001 1.63,5.510001 -0.8,1.1 -6.17,-0.42 -10.34,-3.98 -5.35,-4.560001 -9.63,-9.430001 -9.63,-9.430001 z"
         id="path1919" /></g></g><g
     inkscape:groupmode="layer"
     id="layer2"
     inkscape:label="Layer 2"><g
       id="g2233"
       transform="matrix(0.22678244,0.00438521,-0.00292627,0.33984807,48.299194,42.403913)"
       style="stroke-width:3.60177"><path
         id="path2099"
         style="fill:#fec42c;fill-opacity:1;stroke-width:3.60177"
         d="m 98.884891,3.2757372 c -0.169063,-0.060508 -0.365155,-0.094795 -0.592655,-0.094795 -1.329999,0 -40.889635,33.5578948 -47.869628,39.0678898 -6.979993,5.509994 -31.132141,26.003011 -31.132141,26.003011 0,0 -2.150168,1.316245 -1.820168,2.966243 0.329999,1.649999 1.77128,1.723454 2.43128,1.723454 0.659999,0 34.849663,-0.183933 36.839661,-0.243933 0.388339,-0.01101 0.676248,0.08865 0.926659,0.227074 -0.428466,0.669131 -0.802979,1.246936 -1.386808,2.194037 -0.9,1.459999 -23.939391,40.071482 -26.339389,44.021472 -2.519502,4.14808 -2.493525,4.84082 -2.390467,4.92002 -9.02e-4,0.007 -0.04248,0.064 -0.04248,0.0701 0,1.31 1.581202,1.96146 3.0512,1.08146 1.139999,-0.68 74.842025,-63.133531 78.092015,-67.423526 0.88,-1.169999 1.32582,-4.247998 -2.30417,-4.247998 -0.0154,0 -0.067,0.0094 -0.0833,0.0097 -0.14322,0.0011 -28.274171,0.186269 -36.381449,0.158983 C 70.279571,53.073733 98.653309,7.6189942 99.308729,6.467045 99.886228,5.452046 100.06833,3.6992915 98.884891,3.2757372 Z" /></g></g></svg>
